<svg aria-hidden="true" style="position: absolute; width: 0; height: 0; overflow: hidden;" version="1.1" xmlns="http://www.w3.org/2000/svg" xmlns:xlink="http://www.w3.org/1999/xlink">
<defs>
<symbol id="icon-download" viewBox="0 0 20 20">
<title>download</title>
<path d="M15 7h-3v-6h-4v6h-3l5 5 5-5zM19.338 13.532c-0.21-0.224-1.611-1.723-2.011-2.114-0.265-0.259-0.644-0.418-1.042-0.418h-1.757l3.064 2.994h-3.544c-0.102 0-0.194 0.052-0.24 0.133l-0.816 1.873h-5.984l-0.816-1.873c-0.046-0.081-0.139-0.133-0.24-0.133h-3.544l3.063-2.994h-1.756c-0.397 0-0.776 0.159-1.042 0.418-0.4 0.392-1.801 1.891-2.011 2.114-0.489 0.521-0.758 0.936-0.63 1.449l0.561 3.074c0.128 0.514 0.691 0.936 1.252 0.936h16.312c0.561 0 1.124-0.422 1.252-0.936l0.561-3.074c0.126-0.513-0.142-0.928-0.632-1.449z"></path>
</symbol>
<symbol id="icon-back-in-time" viewBox="0 0 20 20">
<title>back-in-time</title>
<path d="M11 1.799c-4.445 0-8.061 3.562-8.169 7.996v0.205h-2.372l3.594 3.894 3.494-3.894h-2.672v-0.205c0.107-3.303 2.808-5.945 6.125-5.945 3.386 0 6.131 2.754 6.131 6.15s-2.745 6.15-6.131 6.15c-1.357 0-2.611-0.445-3.627-1.193l-1.406 1.504c1.388 1.088 3.135 1.738 5.033 1.738 4.515 0 8.174-3.67 8.174-8.199s-3.659-8.201-8.174-8.201zM10 5v5c0 0.13 0.027 0.26 0.077 0.382s0.124 0.233 0.216 0.325l3.2 3.2c0.283-0.183 0.55-0.389 0.787-0.628l-2.28-2.279v-6h-2z"></path>
</symbol>
<symbol id="icon-circle-with-plus" viewBox="0 0 20 20">
<title>circle-with-plus</title>
<path d="M10 1.6c-4.639 0-8.4 3.761-8.4 8.4s3.761 8.4 8.4 8.4 8.4-3.761 8.4-8.4c0-4.639-3.761-8.4-8.4-8.4zM15 11h-4v4h-2v-4h-4v-2h4v-4h2v4h4v2z"></path>
</symbol>
<symbol id="icon-cycle" viewBox="0 0 20 20">
<title>cycle</title>
<path d="M5.516 14.224c-2.262-2.432-2.222-6.244 0.128-8.611 0.962-0.969 2.164-1.547 3.414-1.736l-0.069-2.077c-1.755 0.213-3.452 0.996-4.797 2.351-3.149 3.17-3.187 8.289-0.123 11.531l-1.741 1.752 5.51 0.301-0.015-5.834-2.307 2.323zM12.163 2.265l0.015 5.834 2.307-2.322c2.262 2.434 2.222 6.246-0.128 8.611-0.961 0.969-2.164 1.547-3.414 1.736l0.069 2.076c1.755-0.213 3.452-0.996 4.798-2.35 3.148-3.172 3.186-8.291 0.122-11.531l1.741-1.754-5.51-0.3z"></path>
</symbol>
<symbol id="icon-hand" viewBox="0 0 20 20">
<title>hand</title>
<path d="M17.924 17.315c-0.057 0.174-0.193 0.367-0.416 0.432-0.161 0.047-5.488 1.59-5.652 1.633-0.469 0.125-0.795 0.033-1.009-0.156-0.326-0.287-4.093-2.85-8.845-3.092-0.508-0.025-0.259-1.951 1.193-1.951 0.995 0 3.904 0.723 4.255 0.371 0.271-0.272 0.394-1.879-0.737-4.683v0l-2.275-5.637c-0.216-0.535 0.044-1.143 0.578-1.359s1.145 0.043 1.359 0.578c0 0 1.791 4.438 1.986 4.919 0.193 0.48 0.431 0.662 0.69 0.562 0.231-0.088 0.279-0.242 0.139-0.709l-2.046-6.028c-0.186-0.546 0.106-1.138 0.652-1.324s1.141 0.106 1.325 0.652l1.946 5.732c0.172 0.504 0.354 0.768 0.642 0.646 0.173-0.073 0.161-0.338 0.115-0.569l-1.366-5.471c-0.14-0.561 0.201-1.127 0.761-1.267s1.125 0.2 1.266 0.761l1.26 5.042c0.184 0.741 0.353 1.008 0.646 0.935 0.299-0.073 0.285-0.319 0.244-0.522-0.095-0.475-0.872-4.328-0.872-4.328-0.103-0.515 0.23-1.015 0.744-1.118s1.014 0.23 1.116 0.743l0.948 4.711 0.001 0.001c0 0 0 0 0 0.001l0.568 2.825c0.124 0.533 0.266 1.035 0.45 1.527 1.085 2.889 0.519 5.564 0.334 6.143z"></path>
</symbol>
<symbol id="icon-plus" viewBox="0 0 20 20">
<title>plus</title>
<path d="M16 10c0 0.553-0.048 1-0.601 1h-4.399v4.399c0 0.552-0.447 0.601-1 0.601s-1-0.049-1-0.601v-4.399h-4.399c-0.552 0-0.601-0.447-0.601-1s0.049-1 0.601-1h4.399v-4.399c0-0.553 0.447-0.601 1-0.601s1 0.048 1 0.601v4.399h4.399c0.553 0 0.601 0.447 0.601 1z"></path>
</symbol>
<symbol id="icon-stopwatch" viewBox="0 0 20 20">
<title>stopwatch</title>
<path d="M7.376 6.745c-0.447 0.275 1.197 4.242 1.598 4.888 0.35 0.569 1.093 0.742 1.658 0.394 0.568-0.352 0.745-1.094 0.395-1.66-0.397-0.648-3.205-3.898-3.651-3.622zM7.041 2.402c0.928-0.323 1.922-0.502 2.959-0.502s2.031 0.179 2.959 0.502c0.329 0.114 0.765-0.115 0.572-0.611-0.141-0.36-0.277-0.712-0.332-0.855-0.131-0.339-0.6-0.619-0.804-0.665-0.772-0.174-1.572-0.271-2.395-0.271s-1.623 0.097-2.396 0.271c-0.204 0.046-0.672 0.326-0.803 0.665-0.055 0.143-0.192 0.495-0.332 0.855-0.193 0.496 0.243 0.726 0.572 0.611zM19.098 3.186c-0.192-0.23-0.396-0.455-0.613-0.672-0.216-0.217-0.441-0.42-0.67-0.613-0.153-0.129-0.603-0.234-0.888 0.051s-1.648 1.647-1.648 1.647c0.402 0.288 0.793 0.605 1.155 0.966s0.677 0.752 0.966 1.155c0 0 1.363-1.362 1.647-1.647 0.286-0.286 0.181-0.735 0.051-0.887zM10 2.9c-4.475 0-8.101 3.626-8.101 8.1s3.626 8.101 8.101 8.101c4.473 0 8.1-3.626 8.1-8.101 0-4.473-3.627-8.1-8.1-8.1zM10 17.101c-3.368 0-6.1-2.731-6.1-6.1s2.731-6.1 6.1-6.1c3.369 0 6.101 2.731 6.101 6.1s-2.732 6.1-6.101 6.1z"></path>
</symbol>
<symbol id="icon-trophy" viewBox="0 0 20 20">
<title>trophy</title>
<path d="M11.18 14.356c0-1.451 1.1-2.254 2.894-3.442 2.194-1.456 4.926-3.265 4.926-7.56 0-0.387-0.317-0.699-0.709-0.699h-3.43c-0.484-0.896-1.929-1.855-4.861-1.855-2.934 0-4.377 0.959-4.862 1.855h-3.431c-0.391 0-0.707 0.313-0.707 0.699 0 4.295 2.73 6.104 4.926 7.559 1.794 1.188 2.894 1.991 2.894 3.442v1.311c-1.884 0.209-3.269 0.906-3.269 1.736 0 0.994 1.992 1.799 4.449 1.799s4.449-0.805 4.449-1.799c0-0.83-1.385-1.527-3.269-1.736v-1.31zM13.957 9.3c0.566-1.199 1.016-2.826 1.088-5.246h2.51c-0.24 2.701-1.862 4.064-3.598 5.246zM10 2.026c2.732-0.002 3.799 1.115 3.798 1.529 0 0.418-1.066 1.533-3.798 1.535-2.732-0.001-3.799-1.116-3.799-1.534-0.001-0.414 1.067-1.532 3.799-1.53zM2.445 4.054h2.509c0.073 2.42 0.521 4.047 1.089 5.246-1.736-1.182-3.359-2.545-3.598-5.246z"></path>
</symbol>
<symbol id="icon-add-outline" viewBox="0 0 20 20">
<title>add-outline</title>
<path d="M11 9h4v2h-4v4h-2v-4h-4v-2h4v-4h2v4zM10 20c-5.523 0-10-4.477-10-10s4.477-10 10-10v0c5.523 0 10 4.477 10 10s-4.477 10-10 10v0zM10 18c4.418 0 8-3.582 8-8s-3.582-8-8-8v0c-4.418 0-8 3.582-8 8s3.582 8 8 8v0z"></path>
</symbol>
<symbol id="icon-add-solid" viewBox="0 0 20 20">
<title>add-solid</title>
<path d="M11 9v-4h-2v4h-4v2h4v4h2v-4h4v-2h-4zM10 20c-5.523 0-10-4.477-10-10s4.477-10 10-10v0c5.523 0 10 4.477 10 10s-4.477 10-10 10v0z"></path>
</symbol>
<symbol id="icon-download1" viewBox="0 0 20 20">
<title>download1</title>
<path d="M13 8v-6h-6v6h-5l8 8 8-8h-5zM0 18h20v2h-20v-2z"></path>
</symbol>
<symbol id="icon-hand-stop" viewBox="0 0 20 20">
<title>hand-stop</title>
<path d="M17 16c0 2.209-1.791 4-4 4v0h-6c0 0 0 0-0 0-2.209 0-4-1.791-4-4 0-0.004 0-0.007 0-0.011v0.001-11.99c0-0.552 0.448-1 1-1v0c0.552 0 1 0.448 1 1v0 6h1v-8c0-0.552 0.448-1 1-1v0c0.552 0 1 0.448 1 1v0 8h1v-9c0-0.552 0.448-1 1-1s1 0.448 1 1v0 9h1v-8c0-0.552 0.448-1 1-1v0c0.552 0 1 0.448 1 1v0 13h1v-6c0-0.552 0.448-1 1-1v0h1v8z"></path>
</symbol>
<symbol id="icon-refresh" viewBox="0 0 20 20">
<title>refresh</title>
<path d="M10 3v2c-0.003 0-0.006 0-0.009 0-2.761 0-5 2.239-5 5 0 1.383 0.561 2.635 1.469 3.54l0 0-1.41 1.41c-1.267-1.267-2.051-3.017-2.051-4.95 0-3.866 3.134-7 7-7 0 0 0 0 0.001 0h-0zM14.95 5.050c1.267 1.267 2.051 3.017 2.051 4.95 0 3.866-3.134 7-7 7-0 0-0 0-0.001 0h0v-2c0.003 0 0.006 0 0.009 0 2.761 0 5-2.239 5-5 0-1.383-0.561-2.635-1.469-3.54l-0-0 1.41-1.41zM10 20l-4-4 4-4v8zM10 8v-8l4 4-4 4z"></path>
</symbol>
<symbol id="icon-reload" viewBox="0 0 20 20">
<title>reload</title>
<path d="M14.66 15.66c-1.448 1.45-3.449 2.346-5.66 2.346-4.418 0-8-3.582-8-8s3.582-8 8-8c4.416 0 7.996 3.578 8 7.993v0h-2c0-0.002 0-0.003 0-0.005 0-3.314-2.686-6-6-6s-6 2.686-6 6c0 3.314 2.686 6 6 6 1.656 0 3.154-0.671 4.24-1.755l-0 0 1.42 1.42zM12 10h8l-4 4-4-4z"></path>
</symbol>
<symbol id="icon-repost" viewBox="0 0 20 20">
<title>repost</title>
<path d="M5 4c-1.105 0-2 0.895-2 2v0 6h-3l4 4 4-4h-3v-6h7l2-2h-9zM15 8h-3l4-4 4 4h-3v6c0 1.105-0.895 2-2 2v0h-9l2-2h7v-6z"></path>
</symbol>
<symbol id="icon-timer" viewBox="0 0 20 20">
<title>timer</title>
<path d="M16.32 7.1c1.044 1.339 1.675 3.045 1.675 4.898 0 4.418-3.582 8-8 8s-8-3.582-8-8c0-4.068 3.036-7.426 6.965-7.934l0.040-0.004v-2.060h2v2.060c1.46 0.18 2.8 0.76 3.9 1.62l1.46-1.46 1.42 1.42-1.46 1.45zM10 18c3.314 0 6-2.686 6-6s-2.686-6-6-6v0c-3.314 0-6 2.686-6 6s2.686 6 6 6v0zM7 0h6v2h-6v-2zM12.12 8.46l1.42 1.42-3.54 3.52-1.41-1.4 3.53-3.54z"></path>
</symbol>
<symbol id="icon-trophy1" viewBox="0 0 20 20">
<title>trophy1</title>
<path d="M15 9c1.657 0 3-1.343 3-3v0h2c0 0 0 0.001 0 0.001 0 2.761-2.239 5-5 5-0.035 0-0.070-0-0.105-0.001l0.005 0c-0.411 1.966-1.934 3.489-3.867 3.894l-0.033 0.006v2.1l5 2v1h-12v-1l5-2v-2.1c-1.966-0.411-3.489-1.934-3.894-3.867l-0.006-0.033h-0.1c-2.761 0-5-2.239-5-5v0h2c0 1.657 1.343 3 3 3v0-5h-3v2h-2v-4h5v-2h10v2h5v4h-2v-2h-3v5z"></path>
</symbol>
<symbol id="icon-stopwatch1" viewBox="0 0 32 32">
<title>stopwatch1</title>
<path d="M16 6.038v-2.038h4v-2c0-1.105-0.895-2-2-2h-6c-1.105 0-2 0.895-2 2v2h4v2.038c-6.712 0.511-12 6.119-12 12.962 0 7.18 5.82 13 13 13s13-5.82 13-13c0-6.843-5.288-12.451-12-12.962zM22.071 26.071c-1.889 1.889-4.4 2.929-7.071 2.929s-5.182-1.040-7.071-2.929c-1.889-1.889-2.929-4.4-2.929-7.071s1.040-5.182 2.929-7.071c1.814-1.814 4.201-2.844 6.754-2.923l-0.677 9.813c-0.058 0.822 0.389 1.181 0.995 1.181s1.053-0.36 0.995-1.181l-0.677-9.813c2.552 0.079 4.94 1.11 6.754 2.923 1.889 1.889 2.929 4.4 2.929 7.071s-1.040 5.182-2.929 7.071z"></path>
</symbol>
<symbol id="icon-download11" viewBox="0 0 32 32">
<title>download11</title>
<path d="M16 18l8-8h-6v-8h-4v8h-6zM23.273 14.727l-2.242 2.242 8.128 3.031-13.158 4.907-13.158-4.907 8.127-3.031-2.242-2.242-8.727 3.273v8l16 6 16-6v-8z"></path>
</symbol>
<symbol id="icon-trophy11" viewBox="0 0 32 32">
<title>trophy11</title>
<path d="M26 6v-4h-20v4h-6v4c0 3.314 2.686 6 6 6 0.627 0 1.232-0.096 1.801-0.275 1.443 2.063 3.644 3.556 6.199 4.075v6.2h-2c-2.209 0-4 1.791-4 4h16c0-2.209-1.791-4-4-4h-2v-6.2c2.555-0.519 4.756-2.012 6.199-4.075 0.568 0.179 1.173 0.275 1.801 0.275 3.314 0 6-2.686 6-6v-4h-6zM6 13.625c-1.999 0-3.625-1.626-3.625-3.625v-2h3.625v2c0 1.256 0.232 2.457 0.655 3.565-0.213 0.039-0.431 0.060-0.655 0.060zM29.625 10c0 1.999-1.626 3.625-3.625 3.625-0.224 0-0.442-0.021-0.655-0.060 0.423-1.107 0.655-2.309 0.655-3.565v-2h3.625v2z"></path>
</symbol>
<symbol id="icon-download2" viewBox="0 0 32 32">
<title>download2</title>
<path d="M28 16h-5l-7 7-7-7h-5l-4 8v2h32v-2l-4-8zM0 28h32v2h-32v-2zM18 10v-8h-4v8h-7l9 9 9-9h-7z"></path>
</symbol>
<symbol id="icon-plus1" viewBox="0 0 32 32">
<title>plus1</title>
<path d="M31 12h-11v-11c0-0.552-0.448-1-1-1h-6c-0.552 0-1 0.448-1 1v11h-11c-0.552 0-1 0.448-1 1v6c0 0.552 0.448 1 1 1h11v11c0 0.552 0.448 1 1 1h6c0.552 0 1-0.448 1-1v-11h11c0.552 0 1-0.448 1-1v-6c0-0.552-0.448-1-1-1z"></path>
</symbol>
<symbol id="icon-loop2" viewBox="0 0 32 32">
<title>loop2</title>
<path d="M27.802 5.197c-2.925-3.194-7.13-5.197-11.803-5.197-8.837 0-16 7.163-16 16h3c0-7.18 5.82-13 13-13 3.844 0 7.298 1.669 9.678 4.322l-4.678 4.678h11v-11l-4.198 4.197z"></path>
<path d="M29 16c0 7.18-5.82 13-13 13-3.844 0-7.298-1.669-9.678-4.322l4.678-4.678h-11v11l4.197-4.197c2.925 3.194 7.13 5.197 11.803 5.197 8.837 0 16-7.163 16-16h-3z"></path>
</symbol>
</defs>
</svg>
